<?xml version="1.0" encoding="UTF-8"?><svg id="Layer_2" data-name="Layer 2" xmlns="http://www.w3.org/2000/svg" viewBox="0 0 95.1 91.21"><defs><style> .cls-1 { fill: #ffffff66; } </style></defs><g id="Layer_1-2" data-name="Layer 1"><g><path class="cls-1" d="M95.1,13.23c0,2.73-2.05,4.44-4.4,4.44s-4.41-1.71-4.41-4.44,2.06-4.43,4.41-4.43,4.4,1.7,4.4,4.43Zm-8.14,0c0,2.33,1.7,3.8,3.74,3.8s3.73-1.47,3.73-3.8-1.69-3.79-3.73-3.79-3.74,1.45-3.74,3.79Zm3.79-2.26c1.17,0,1.51,.61,1.51,1.24s-.37,1-.79,1.21l1.02,1.93h-.78l-.88-1.72h-.94v1.72h-.64v-4.37h1.49Zm-.85,2.05h.81c.53,0,.85-.34,.85-.75s-.22-.69-.85-.69h-.81v1.45Z"/><g><path class="cls-1" d="M45.45,0C21.49,0,1.87,18.47,0,41.95l24.44,10.11c2.07-1.42,4.57-2.24,7.27-2.24,.24,0,.48,0,.72,.02l10.87-15.76c0-.07,0-.15,0-.22,0-9.48,7.72-17.2,17.2-17.2s17.2,7.72,17.2,17.2-7.72,17.2-17.2,17.2c-.13,0-.26,0-.39,0l-15.5,11.06c0,.2,.01,.41,.01,.61,0,7.12-5.79,12.91-12.91,12.91-6.25,0-11.47-4.46-12.66-10.37L1.57,58.03c5.41,19.14,23,33.18,43.88,33.18,25.19,0,45.6-20.42,45.6-45.6S70.63,0,45.45,0Z"/><path class="cls-1" d="M28.58,69.2l-5.6-2.31c.99,2.07,2.71,3.8,4.99,4.75,4.93,2.05,10.61-.29,12.67-5.22,.99-2.39,1-5.02,.01-7.41-.98-2.39-2.84-4.26-5.23-5.25-2.37-.99-4.91-.95-7.14-.11l5.79,2.39c3.64,1.52,5.36,5.69,3.84,9.33-1.51,3.64-5.69,5.36-9.33,3.84Z"/><path class="cls-1" d="M71.96,33.85c0-6.32-5.14-11.46-11.46-11.46s-11.46,5.14-11.46,11.46,5.14,11.46,11.46,11.46,11.46-5.14,11.46-11.46Zm-20.05-.02c0-4.75,3.86-8.61,8.61-8.61s8.61,3.85,8.61,8.61-3.85,8.61-8.61,8.61-8.61-3.85-8.61-8.61Z"/></g></g></g></svg>